mtllib battery.mtl
usemtl battery
# https://github.com/mikedh/trimesh
v -0.22588100 -0.06249898 0.01510047
v -0.22588100 0.06249898 -0.05899847
v -0.22588100 -0.06249898 -0.05899847
v -0.22588100 0.06249898 0.01510047
v 0.23221301 0.06249898 -0.05899847
v -0.22588100 0.06249898 -0.05899847
v 0.23221301 0.06249898 0.01510047
v 0.23221301 -0.06249898 -0.05899847
v 0.23221301 0.06249898 -0.05899847
v 0.23221301 -0.06249898 0.01510047
v -0.22588100 -0.06249898 -0.05899847
v 0.23221301 -0.06249898 -0.05899847
v 0.23221301 0.06249898 -0.05899847
v -0.22588100 -0.06249898 -0.05899847
v -0.22588100 0.06249898 -0.05899847
v -0.22588100 0.06249898 0.01510047
v 0.23221301 -0.06249898 0.01510047
v 0.23221301 0.06249898 0.01510047
v -0.22588100 0.06249898 0.01510047
v 0.23221301 0.06249898 0.01510047
v 0.23221301 -0.06249898 0.01510047
v -0.22588100 -0.06249898 0.01510047
v 0.23221301 -0.06249898 -0.05899847
v -0.22588100 -0.06249898 0.01510047
vn -1.00000000 0.00000000 0.00000000
vn -1.00000000 0.00000000 0.00000000
vn -1.00000000 0.00000000 0.00000000
vn 0.00000000 1.00000000 0.00000000
vn 0.00000000 1.00000000 0.00000000
vn 0.00000000 1.00000000 0.00000000
vn 1.00000000 0.00000000 0.00000000
vn 1.00000000 0.00000000 0.00000000
vn 1.00000000 0.00000000 0.00000000
vn 0.00000000 -1.00000000 0.00000000
vn 0.00000000 -1.00000000 0.00000000
vn 0.00000000 -1.00000000 0.00000000
vn 0.00000000 0.00000000 -1.00000000
vn 0.00000000 0.00000000 -1.00000000
vn 0.00000000 0.00000000 -1.00000000
vn 0.00000000 0.00000000 1.00000000
vn 0.00000000 0.00000000 1.00000000
vn 0.00000000 0.00000000 1.00000000
vn -1.00000000 0.00000000 0.00000000
vn 0.00000000 1.00000000 0.00000000
vn 1.00000000 0.00000000 0.00000000
vn 0.00000000 -1.00000000 0.00000000
vn 0.00000000 0.00000000 -1.00000000
vn 0.00000000 0.00000000 1.00000000
vt 0.84310812 0.27286541
vt 1.00000000 0.00000000
vt 1.00000000 0.27286541
vt 0.68621618 1.00000000
vt 0.84310788 0.00000000
vt 0.84310812 1.00000000
vt 0.84310812 0.54573083
vt 1.00000000 0.27286541
vt 1.00000000 0.54573083
vt 0.68621588 0.00000000
vt 0.52932411 1.00000000
vt 0.52932388 0.00000000
vt 0.26466200 0.00000000
vt 0.52932388 0.99999988
vt 0.26466221 0.99999988
vt 0.26466200 0.99999988
vt 0.00000000 0.00000000
vt 0.26466179 0.00000000
vt 0.84310812 0.00000000
vt 0.68621612 0.00000000
vt 0.84310812 0.27286541
vt 0.68621612 1.00000000
vt 0.52932382 0.00000000
vt 0.00000017 0.99999988
f 1/1/1 2/2/2 3/3/3
f 4/4/4 5/5/5 6/6/6
f 7/7/7 8/8/8 9/9/9
f 10/10/10 11/11/11 12/12/12
f 13/13/13 14/14/14 15/15/15
f 16/16/16 17/17/17 18/18/18
f 1/1/1 19/19/19 2/2/2
f 4/4/4 20/20/20 5/5/5
f 7/7/7 21/21/21 8/8/8
f 10/10/10 22/22/22 11/11/11
f 13/13/13 23/23/23 14/14/14
f 16/16/16 24/24/24 17/17/17


